<?xml version="1.0" standalone="no"?>
<!DOCTYPE svg PUBLIC "-//W3C//DTD SVG 20010904//EN"
 "http://www.w3.org/TR/2001/REC-SVG-20010904/DTD/svg10.dtd">
<svg version="1.0" xmlns="http://www.w3.org/2000/svg"
 width="2784.000000pt" height="1536.000000pt" viewBox="0 0 2784.000000 1536.000000"
 preserveAspectRatio="xMidYMid meet">

<g transform="translate(0.000000,1536.000000) scale(0.100000,-0.100000)"
fill="#000000" stroke="none">
<path d="M14290 13240 c368 -40 798 -143 1116 -265 444 -171 910 -476 1219 -796
174 -180 289 -338 436 -600 174 -310 270 -568 368 -993 96 -415 120 -693 74
-842 -60 -190 -238 -271 -468 -214 -153 38 -254 98 -365 217 -130 139 -232
337 -311 606 -101 347 -155 473 -277 657 -78 117 -217 259 -322 330 -83 56
-214 114 -321 142 -123 32 -315 32 -419 0 -248 -77 -435 -290 -497 -565 -26
-116 -21 -300 10 -418 84 -313 274 -584 670 -958 72 -67 264 -238 427 -379
162 -141 347 -303 410 -361 628 -574 1026 -1084 1230 -1575 172 -414 238 -913
180 -1371 -65 -508 -247 -962 -578 -1440 -77 -112 -348 -448 -467 -580 -644
-714 -1028 -1076 -1336 -1260 -291 -173 -559 -268 -855 -305 -117 -15 -397
-15 -509 0 -238 31 -529 113 -749 210 -112 50 -299 151 -373 202 -240 163
-376 460 -331 718 33 184 118 341 254 470 91 87 166 138 267 185 151 70 267
95 436 95 134 0 260 -20 501 -80 294 -74 364 -88 498 -100 258 -23 520 27 782
151 257 122 508 334 684 578 110 153 230 409 275 588 57 224 65 289 65 503 0
186 -2 217 -27 335 -52 243 -135 454 -250 637 -152 241 -451 544 -816 828
-208 161 -394 270 -462 270 -54 0 -75 -13 -101 -63 -21 -37 -23 -55 -22 -162
2 -133 23 -301 60 -471 47 -221 116 -488 179 -697 75 -251 92 -316 110 -419
75 -424 -38 -738 -326 -909 -109 -65 -172 -81 -341 -87 -127 -4 -161 -1 -241
17 -110 25 -293 111 -417 196 -291 198 -586 534 -903 1030 -114 178 -212 338
-269 440 -25 44 -88 152 -139 240 -52 88 -161 282 -243 430 -321 583 -386 675
-489 692 -138 22 -163 -276 -86 -1037 53 -534 97 -768 304 -1630 91 -379 92
-386 109 -465 79 -366 48 -676 -89 -882 -53 -80 -147 -167 -217 -202 -48 -24
-74 -31 -121 -31 -161 0 -257 116 -492 595 -410 836 -696 1877 -830 3020 -52
449 -57 1269 -9 1710 66 616 188 1145 389 1690 81 219 121 312 200 462 213
405 463 735 755 994 52 46 104 92 115 102 114 104 389 284 585 385 614 317
1251 459 2010 447 140 -2 298 -9 350 -15z m11699 -10127 c86 -247 168 -381
321 -527 129 -123 271 -204 497 -284 117 -42 111 -52 -67 -122 -272 -108 -428
-222 -564 -413 -69 -97 -145 -253 -195 -399 -25 -74 -49 -128 -56 -128 -7 0
-30 52 -55 123 -151 443 -366 671 -776 826 -77 29 -130 54 -132 63 -3 14 51
43 118 63 77 24 265 113 335 160 44 29 117 91 161 137 131 135 209 269 288
498 26 74 49 141 52 149 9 25 22 -1 73 -146z m801 -1560 c75 -201 214 -340
407 -404 35 -11 63 -24 63 -27 0 -4 -30 -18 -67 -30 -93 -33 -164 -74 -233
-138 -69 -65 -108 -122 -150 -224 -17 -41 -36 -86 -41 -100 -9 -22 -12 -23
-22 -9 -7 8 -19 18 -28 21 -10 4 -22 24 -29 45 -7 21 -31 73 -54 117 -68 129
-209 244 -353 287 -64 18 -57 41 19 65 82 24 190 96 257 170 47 52 95 137 140
247 9 22 16 27 31 22 11 -4 20 -2 20 4 0 29 21 5 40 -46z
M13825 12843 c-151 -5 -360 -25 -501 -48 -679 -114 -1141 -405 -1407
-885 -53 -96 -91 -200 -126 -340 -45 -184 -55 -274 -54 -490 0 -238 13 -373
58 -595 70 -351 172 -649 398 -1160 124 -282 404 -799 561 -1040 173 -264 303
-334 362 -197 24 56 22 362 -5 632 -12 118 -28 283 -36 365 -89 909 -86 1507
12 2010 72 376 205 730 374 1000 149 238 276 374 557 598 115 92 97 121 -98
150 -8 2 -51 2 -95 0z"/>
</g>
</svg>